# xmcd CD database file
#
# Track frame offsets:
#	150
#	21512
#	58262
#	80312
#	110312
#	148187
#	176312
#	200312
#	227612
#	252962
#
# Disc length: 3651 seconds
#
# Revision: 0
# Processed by: cddbd v1.5.1PL0 Copyright (c) Steve Scherf et al.
# Submitted via: CDex 1.50
#
DISCID=820e410a
DTITLE=Grooveyard - featuring Red Holloway
DYEAR=1995
DGENRE=Jazz
TTITLE0=Gator Whale
TTITLE1=Red's Ahead
TTITLE2=Close To You
TTITLE3=These Are Soulful Days
TTITLE4=Day By Day
TTITLE5=Red Top
TTITLE6=Cancao Sossegada
TTITLE7=If There Is Someone Lovelier Than You
TTITLE8=These Foolish Things
TTITLE9=Misty
EXTD=YEAR: 1995
EXTT0=
EXTT1=
EXTT2=
EXTT3=
EXTT4=
EXTT5=
EXTT6=
EXTT7=
EXTT8=
EXTT9=
PLAYORDER=
